<?xml version="1.0" encoding="UTF-8" standalone="no" ?>
<!DOCTYPE svg PUBLIC "-//W3C//DTD SVG 1.1//EN" "http://www.w3.org/Graphics/SVG/1.1/DTD/svg11.dtd">
<svg xmlns="http://www.w3.org/2000/svg" xmlns:xlink="http://www.w3.org/1999/xlink" version="1.1" width="317.96240000000006" height="464.50200000000007" xml:space="preserve">
<desc>Created with Fabric.js 1.6.0-rc.1</desc>
<defs></defs>
<g style="stroke: none; stroke-width: 1; stroke-dasharray: none; stroke-linecap: butt; stroke-linejoin: miter; stroke-miterlimit: 10; fill: none; fill-rule: nonzero; opacity: 1;" transform="translate(10 10) scale(0.67 0.67)" >
  <path d="M 256.004 0 L 68.284 87.437 V 248.2 c 0 122.145 78.469 225.905 187.72 263.8 c 109.263 -37.896 187.712 -141.655 187.712 -263.8 V 87.437 L 256.004 0 z" style="stroke: none; stroke-width: 1; stroke-dasharray: none; stroke-linecap: butt; stroke-linejoin: miter; stroke-miterlimit: 10; fill: #3F4A5A; fill-rule: nonzero; opacity: 1;" transform=" matrix(1 0 0 1 0 0) " stroke-linecap="round" />
  <path d="M 256.004 39.537 v 434.189 c 91.361 -37.038 151.89 -126.136 151.89 -225.526 V 110.277 L 256.004 39.537 z" style="stroke: none; stroke-width: 1; stroke-dasharray: none; stroke-linecap: butt; stroke-linejoin: miter; stroke-miterlimit: 10; fill: #81CF9B; fill-rule: nonzero; opacity: 1;" transform=" matrix(1 0 0 1 0 0) " stroke-linecap="round" />
  <path d="M 104.124 110.277 V 248.2 c 0 99.387 60.536 188.488 151.88 225.526 V 39.537 L 104.124 110.277 z" style="stroke: none; stroke-width: 1; stroke-dasharray: none; stroke-linecap: butt; stroke-linejoin: miter; stroke-miterlimit: 10; fill: #90DEA9; fill-rule: nonzero; opacity: 1;" transform=" matrix(1 0 0 1 0 0) " stroke-linecap="round" />
  <path d="M 350.747 251.512 c 0 52.296 -42.399 94.728 -94.717 94.728 c -52.316 0 -94.715 -42.432 -94.715 -94.728 c 0 -52.306 42.401 -94.728 94.715 -94.728 C 308.348 156.785 350.747 199.206 350.747 251.512 z" style="stroke: none; stroke-width: 1; stroke-dasharray: none; stroke-linecap: butt; stroke-linejoin: miter; stroke-miterlimit: 10; fill: #FFFFFF; fill-rule: nonzero; opacity: 0;" transform=" matrix(1 0 0 1 0 0) " stroke-linecap="round" />
  <polygon points="238.66,300.18 196.94,258.45 210.84,244.56 238.66,272.36 301.22,209.81 315.11,223.71 " style="stroke: none; stroke-width: 1; stroke-dasharray: none; stroke-linecap: butt; stroke-linejoin: miter; stroke-miterlimit: 10; fill: #3F4A5A; fill-rule: nonzero; opacity: 1;" transform="  matrix(1 0 0 1 0 0) "/>
</g>
<g style="stroke: none; stroke-width: 1; stroke-dasharray: none; stroke-linecap: butt; stroke-linejoin: miter; stroke-miterlimit: 10; fill: none; fill-rule: nonzero; opacity: 1;" transform="translate(104.95000000000005 103.83) scale(0.3 0.26)" >
  <path d="M 485.517 61.793 H 26.483 C 11.857 61.793 0 73.65 0 88.276 v 335.448 c 0 14.626 11.857 26.483 26.483 26.483 h 459.034 c 14.626 0 26.483 -11.857 26.483 -26.483 V 88.276 C 512 73.65 500.143 61.793 485.517 61.793 z M 441.379 79.448 h 8.828 c 4.875 0 8.828 3.953 8.828 8.828 c 0 4.875 -3.953 8.828 -8.828 8.828 h -8.828 c -4.875 0 -8.828 -3.953 -8.828 -8.828 C 432.552 83.401 436.504 79.448 441.379 79.448 z M 194.207 79.448 h 211.862 c 4.875 0 8.828 3.953 8.828 8.828 c 0 4.875 -3.953 8.828 -8.828 8.828 H 194.207 c -4.875 0 -8.828 -3.953 -8.828 -8.828 C 185.379 83.401 189.332 79.448 194.207 79.448 z M 150.069 79.448 h 8.828 c 4.875 0 8.828 3.953 8.828 8.828 c 0 4.875 -3.953 8.828 -8.828 8.828 h -8.828 c -4.875 0 -8.828 -3.953 -8.828 -8.828 C 141.241 83.401 145.194 79.448 150.069 79.448 z M 114.759 79.448 h 8.828 c 4.875 0 8.828 3.953 8.828 8.828 c 0 4.875 -3.953 8.828 -8.828 8.828 h -8.828 c -4.875 0 -8.828 -3.953 -8.828 -8.828 C 105.931 83.401 109.884 79.448 114.759 79.448 z M 79.448 79.448 c 4.875 0 8.828 3.953 8.828 8.828 c 0 4.875 -3.953 8.828 -8.828 8.828 c -4.875 0 -8.828 -3.953 -8.828 -8.828 C 70.621 83.401 74.573 79.448 79.448 79.448 z M 52.966 79.448 c 4.875 0 8.828 3.953 8.828 8.828 c 0 4.875 -3.953 8.828 -8.828 8.828 s -8.828 -3.953 -8.828 -8.828 C 44.138 83.401 48.09 79.448 52.966 79.448 z M 26.483 79.448 c 4.875 0 8.828 3.953 8.828 8.828 c 0 4.875 -3.953 8.828 -8.828 8.828 s -8.828 -3.953 -8.828 -8.828 C 17.655 83.401 21.608 79.448 26.483 79.448 z M 494.345 423.724 c 0 4.875 -3.953 8.828 -8.828 8.828 H 26.483 c -4.875 0 -8.828 -3.953 -8.828 -8.828 V 123.586 c 0 -4.875 3.953 -8.828 8.828 -8.828 h 459.034 c 4.875 0 8.828 3.953 8.828 8.828 V 423.724 z M 485.517 97.103 h -8.828 c -4.875 0 -8.828 -3.953 -8.828 -8.828 c 0 -4.875 3.953 -8.828 8.828 -8.828 h 8.828 c 4.875 0 8.828 3.953 8.828 8.828 C 494.345 93.151 490.392 97.103 485.517 97.103 z" style="stroke: none; stroke-width: 1; stroke-dasharray: none; stroke-linecap: butt; stroke-linejoin: miter; stroke-miterlimit: 10; fill: #D2DCF0; fill-rule: nonzero; opacity: 0;" transform=" matrix(1 0 0 1 0 0) " stroke-linecap="round" />
  <path d="M 485.517 114.759 H 26.483 c -4.875 0 -8.828 3.953 -8.828 8.828 v 300.138 c 0 4.875 3.953 8.828 8.828 8.828 h 459.034 c 4.875 0 8.828 -3.953 8.828 -8.828 V 123.586 C 494.345 118.711 490.392 114.759 485.517 114.759 z M 380.983 284.358 c -27.695 36.215 -73.297 59.918 -124.983 59.918 s -97.288 -23.703 -124.983 -59.918 c -4.809 -6.289 -4.809 -15.116 0 -21.405 c 27.695 -36.215 73.297 -59.918 124.983 -59.918 s 97.288 23.703 124.983 59.918 C 385.792 269.241 385.792 278.069 380.983 284.358 z" style="stroke: none; stroke-width: 1; stroke-dasharray: none; stroke-linecap: butt; stroke-linejoin: miter; stroke-miterlimit: 10; fill: #203a4d; fill-rule: nonzero; opacity: 1;" transform=" matrix(1 0 0 1 0 0) " stroke-linecap="round" />
  <path d="M 256 203.034 c -51.687 0 -97.288 23.703 -124.983 59.918 c -4.809 6.289 -4.809 15.116 0 21.405 c 27.695 36.215 73.297 59.918 124.983 59.918 s 97.288 -23.703 124.983 -59.918 c 4.809 -6.289 4.809 -15.116 0 -21.405 C 353.288 226.738 307.687 203.034 256 203.034 z M 259.523 326.492 c -0.064 0.004 -0.128 0.01 -0.192 0.014 c -1.102 0.068 -2.211 0.115 -3.331 0.115 c -2.742 0 -5.436 -0.209 -8.066 -0.61 c -22.794 -3.482 -40.807 -21.495 -44.289 -44.289 c -0.402 -2.631 -0.61 -5.324 -0.61 -8.066 s 0.209 -5.436 0.61 -8.066 c 3.482 -22.794 21.495 -40.806 44.289 -44.289 c 2.63 -0.402 5.324 -0.61 8.066 -0.61 c 1.12 0 2.229 0.046 3.331 0.115 c 0.064 0.004 0.128 0.01 0.192 0.014 c 27.608 1.816 49.442 24.769 49.442 52.836 C 308.966 301.722 287.132 324.675 259.523 326.492 z" style="stroke: none; stroke-width: 1; stroke-dasharray: none; stroke-linecap: butt; stroke-linejoin: miter; stroke-miterlimit: 10; fill: #FFFFFF; fill-rule: nonzero; opacity: 1;" transform=" matrix(1 0 0 1 0 0) " stroke-linecap="round" />
  <circle cx="26.488" cy="88.278" r="8.828" style="stroke: none; stroke-width: 1; stroke-dasharray: none; stroke-linecap: butt; stroke-linejoin: miter; stroke-miterlimit: 10; fill: #FF6469; fill-rule: nonzero; opacity: 0;" transform="  matrix(1 0 0 1 0 0) "/>
  <circle cx="52.968" cy="88.278" r="8.828" style="stroke: none; stroke-width: 1; stroke-dasharray: none; stroke-linecap: butt; stroke-linejoin: miter; stroke-miterlimit: 10; fill: #FFE169; fill-rule: nonzero; opacity: 0;" transform="  matrix(1 0 0 1 0 0) "/>
  <circle cx="79.44800000000001" cy="88.278" r="8.828" style="stroke: none; stroke-width: 1; stroke-dasharray: none; stroke-linecap: butt; stroke-linejoin: miter; stroke-miterlimit: 10; fill: #87E1AA; fill-rule: nonzero; opacity: 0;" transform="  matrix(1 0 0 1 0 0) "/>
  <path d="M 114.759 97.103 h 8.828 c 4.875 0 8.828 -3.953 8.828 -8.828 c 0 -4.875 -3.953 -8.828 -8.828 -8.828 h -8.828 c -4.875 0 -8.828 3.953 -8.828 8.828 C 105.931 93.151 109.884 97.103 114.759 97.103 z" style="stroke: none; stroke-width: 1; stroke-dasharray: none; stroke-linecap: butt; stroke-linejoin: miter; stroke-miterlimit: 10; fill: #E4EAF6; fill-rule: nonzero; opacity: 0;" transform=" matrix(1 0 0 1 0 0) " stroke-linecap="round" />
  <path d="M 150.069 97.103 h 8.828 c 4.875 0 8.828 -3.953 8.828 -8.828 c 0 -4.875 -3.953 -8.828 -8.828 -8.828 h -8.828 c -4.875 0 -8.828 3.953 -8.828 8.828 C 141.241 93.151 145.194 97.103 150.069 97.103 z" style="stroke: none; stroke-width: 1; stroke-dasharray: none; stroke-linecap: butt; stroke-linejoin: miter; stroke-miterlimit: 10; fill: #E4EAF6; fill-rule: nonzero; opacity: 0;" transform=" matrix(1 0 0 1 0 0) " stroke-linecap="round" />
  <path d="M 441.379 97.103 h 8.828 c 4.875 0 8.828 -3.953 8.828 -8.828 c 0 -4.875 -3.953 -8.828 -8.828 -8.828 h -8.828 c -4.875 0 -8.828 3.953 -8.828 8.828 C 432.552 93.151 436.504 97.103 441.379 97.103 z" style="stroke: none; stroke-width: 1; stroke-dasharray: none; stroke-linecap: butt; stroke-linejoin: miter; stroke-miterlimit: 10; fill: #E4EAF6; fill-rule: nonzero; opacity: 0;" transform=" matrix(1 0 0 1 0 0) " stroke-linecap="round" />
  <path d="M 485.517 79.448 h -8.828 c -4.875 0 -8.828 3.953 -8.828 8.828 c 0 4.875 3.953 8.828 8.828 8.828 h 8.828 c 4.875 0 8.828 -3.953 8.828 -8.828 C 494.345 83.401 490.392 79.448 485.517 79.448 z" style="stroke: none; stroke-width: 1; stroke-dasharray: none; stroke-linecap: butt; stroke-linejoin: miter; stroke-miterlimit: 10; fill: #E4EAF6; fill-rule: nonzero; opacity: 0;" transform=" matrix(1 0 0 1 0 0) " stroke-linecap="round" />
  <path d="M 194.207 97.103 h 211.862 c 4.875 0 8.828 -3.953 8.828 -8.828 c 0 -4.875 -3.953 -8.828 -8.828 -8.828 H 194.207 c -4.875 0 -8.828 3.953 -8.828 8.828 C 185.379 93.151 189.332 97.103 194.207 97.103 z" style="stroke: none; stroke-width: 1; stroke-dasharray: none; stroke-linecap: butt; stroke-linejoin: miter; stroke-miterlimit: 10; fill: #E4EAF6; fill-rule: nonzero; opacity: 0;" transform=" matrix(1 0 0 1 0 0) " stroke-linecap="round" />
  <path d="M 259.331 326.506 c -1.1 0.074 -2.211 0.115 -3.331 0.115 C 257.12 326.621 258.229 326.574 259.331 326.506 z" style="stroke: none; stroke-width: 1; stroke-dasharray: none; stroke-linecap: butt; stroke-linejoin: miter; stroke-miterlimit: 10; fill: #203a4d; fill-rule: nonzero; opacity: 1;" transform=" matrix(1 0 0 1 0 0) " stroke-linecap="round" />
  <path d="M 259.523 220.819 c 3.332 0.237 6.575 0.797 9.718 1.607 c -22.831 5.888 -39.724 26.558 -39.724 51.23 c 0 -14.626 11.857 -26.483 26.483 -26.483 c 2.72 0 5.343 0.412 7.812 1.173 c 1.659 -0.747 3.492 -1.173 5.429 -1.173 c 7.313 0 13.241 5.929 13.241 13.241 c 0 1.937 -0.426 3.771 -1.173 5.429 c 0.761 2.47 1.173 5.092 1.173 7.812 c 0 14.626 -11.857 26.483 -26.483 26.483 c -4.088 0 -7.959 -0.928 -11.416 -2.582 c -1.597 1.596 -3.802 2.582 -6.239 2.582 c -0.623 0 -1.231 -0.066 -1.818 -0.19 c 7.015 12.196 18.749 21.334 32.715 24.937 c -3.143 0.81 -6.385 1.369 -9.718 1.607 c 27.608 -1.816 49.442 -24.769 49.442 -52.836 C 308.966 245.588 287.132 222.635 259.523 220.819 z" style="stroke: none; stroke-width: 1; stroke-dasharray: none; stroke-linecap: butt; stroke-linejoin: miter; stroke-miterlimit: 10; fill: #203a4d; fill-rule: nonzero; opacity: 1;" transform=" matrix(1 0 0 1 0 0) " stroke-linecap="round" />
  <path d="M 256 220.69 c 1.12 0 2.231 0.041 3.331 0.115 C 258.229 220.736 257.12 220.69 256 220.69 z" style="stroke: none; stroke-width: 1; stroke-dasharray: none; stroke-linecap: butt; stroke-linejoin: miter; stroke-miterlimit: 10; fill: #203a4d; fill-rule: nonzero; opacity: 1;" transform=" matrix(1 0 0 1 0 0) " stroke-linecap="round" />
  <path d="M 232.099 285.073 c -1.654 -3.457 -2.582 -7.329 -2.582 -11.417 c 0 4.372 0.541 8.615 1.54 12.675 C 231.367 285.88 231.714 285.458 232.099 285.073 z" style="stroke: none; stroke-width: 1; stroke-dasharray: none; stroke-linecap: butt; stroke-linejoin: miter; stroke-miterlimit: 10; fill: #203a4d; fill-rule: nonzero; opacity: 1;" transform=" matrix(1 0 0 1 0 0) " stroke-linecap="round" />
  <path d="M 236.526 299.948 c -4.002 -0.839 -7.009 -4.386 -7.009 -8.638 c 0 -1.848 0.569 -3.562 1.54 -4.98 c -1 -4.061 -1.54 -8.303 -1.54 -12.675 c 0 -24.671 16.893 -45.341 39.724 -51.23 c -3.143 -0.81 -6.385 -1.369 -9.718 -1.607 c -0.064 -0.004 -0.128 -0.01 -0.192 -0.014 c -1.1 -0.074 -2.211 -0.115 -3.331 -0.115 c -2.742 0 -5.436 0.209 -8.066 0.61 c -22.794 3.482 -40.807 21.495 -44.289 44.289 c -0.402 2.631 -0.61 5.324 -0.61 8.066 s 0.209 5.436 0.61 8.066 c 3.482 22.794 21.495 40.806 44.289 44.289 c 2.63 0.402 5.324 0.61 8.066 0.61 c 1.12 0 2.231 -0.041 3.331 -0.115 c 0.064 -0.004 0.128 -0.01 0.192 -0.014 c 3.332 -0.237 6.575 -0.797 9.718 -1.607 C 255.275 321.283 243.541 312.145 236.526 299.948 z" style="stroke: none; stroke-width: 1; stroke-dasharray: none; stroke-linecap: butt; stroke-linejoin: miter; stroke-miterlimit: 10; fill: #070708; fill-rule: nonzero; opacity: 1;" transform=" matrix(1 0 0 1 0 0) " stroke-linecap="round" />
  <path d="M 238.345 282.483 c 4.875 0 8.828 3.953 8.828 8.828 c 0 2.44 -0.99 4.648 -2.589 6.246 c 3.457 1.655 7.328 2.582 11.416 2.582 c 14.626 0 26.483 -11.857 26.483 -26.483 c 0 -2.72 -0.412 -5.343 -1.173 -7.812 c -2.074 4.603 -6.692 7.812 -12.068 7.812 c -7.313 0 -13.241 -5.929 -13.241 -13.241 c 0 -5.376 3.21 -9.995 7.812 -12.068 c -2.47 -0.761 -5.094 -1.173 -7.812 -1.173 c -14.626 0 -26.483 11.857 -26.483 26.483 c 0 4.088 0.928 7.959 2.582 11.417 C 233.697 283.473 235.905 282.483 238.345 282.483 z" style="stroke: none; stroke-width: 1; stroke-dasharray: none; stroke-linecap: butt; stroke-linejoin: miter; stroke-miterlimit: 10; fill: #635254; fill-rule: nonzero; opacity: 1;" transform=" matrix(1 0 0 1 0 0) " stroke-linecap="round" />
  <path d="M 256 260.414 c 0 7.313 5.929 13.241 13.241 13.241 c 5.376 0 9.994 -3.21 12.068 -7.812 c 0.747 -1.658 1.173 -3.492 1.173 -5.429 c 0 -7.313 -5.929 -13.241 -13.241 -13.241 c -1.937 0 -3.77 0.426 -5.429 1.173 C 259.21 250.419 256 255.038 256 260.414 z" style="stroke: none; stroke-width: 1; stroke-dasharray: none; stroke-linecap: butt; stroke-linejoin: miter; stroke-miterlimit: 10; fill: #FFFFFF; fill-rule: nonzero; opacity: 1;" transform=" matrix(1 0 0 1 0 0) " stroke-linecap="round" />
  <path d="M 247.172 291.31 c 0 -4.875 -3.953 -8.828 -8.828 -8.828 c -2.44 0 -4.648 0.99 -6.246 2.59 c -0.385 0.385 -0.733 0.808 -1.042 1.259 c -0.971 1.418 -1.54 3.132 -1.54 4.98 c 0 4.252 3.007 7.799 7.009 8.638 c 0.587 0.122 1.195 0.189 1.818 0.189 c 2.436 0 4.641 -0.988 6.239 -2.582 C 246.183 295.958 247.172 293.75 247.172 291.31 z" style="stroke: none; stroke-width: 1; stroke-dasharray: none; stroke-linecap: butt; stroke-linejoin: miter; stroke-miterlimit: 10; fill: #FFFFFF; fill-rule: nonzero; opacity: 1;" transform=" matrix(1 0 0 1 0 0) " stroke-linecap="round" />
</g>
<g style="stroke: none; stroke-width: 1; stroke-dasharray: none; stroke-linecap: butt; stroke-linejoin: miter; stroke-miterlimit: 10; fill: #000000; fill-rule: nonzero; opacity: 1;" transform="translate(115.0300000000001 119.63000000000001) scale(0.23 0.23)" >
  <circle cx="256" cy="256" r="256" style="stroke: none; stroke-width: 1; stroke-dasharray: none; stroke-linecap: butt; stroke-linejoin: miter; stroke-miterlimit: 10; fill: #69C4D2; fill-rule: nonzero; opacity: 0;" transform="  matrix(1 0 0 1 0 0) "/>
  <path d="M 389.359 66.211 L 120.192 335.379 c -22.43 63.395 -14.677 41.479 -30.596 86.477 l 72.285 72.285 C 191.015 505.665 222.767 512 256 512 c 141.384 0 256 -114.616 256 -256 c 0 -27.894 -4.478 -54.739 -12.727 -79.874 C 441.826 118.677 390.035 66.887 389.359 66.211 z" style="stroke: none; stroke-width: 1; stroke-dasharray: none; stroke-linecap: butt; stroke-linejoin: miter; stroke-miterlimit: 10; fill: #30767A; fill-rule: nonzero; opacity: 0;" transform=" matrix(1 0 0 1 0 0) " stroke-linecap="round" />
  <polygon points="389.36,66.21 120.19,335.38 89.59,421.86 176.07,391.26 445.24,122.09 " style="stroke: none; stroke-width: 1; stroke-dasharray: none; stroke-linecap: butt; stroke-linejoin: miter; stroke-miterlimit: 10; fill: #FFFFFF; fill-rule: nonzero; opacity: 0;" transform="  matrix(1 0 0 1 0 0) "/>
  <polygon points="417.3,94.15 89.59,421.86 176.07,391.26 445.24,122.09 " style="stroke: none; stroke-width: 1; stroke-dasharray: none; stroke-linecap: butt; stroke-linejoin: miter; stroke-miterlimit: 10; fill: #F9ED9D; fill-rule: nonzero; opacity: 0;" transform="  matrix(1 0 0 1 0 0) "/>
  <polygon points="101.43,388.41 89.59,421.86 123.04,410.02 " style="stroke: none; stroke-width: 1; stroke-dasharray: none; stroke-linecap: butt; stroke-linejoin: miter; stroke-miterlimit: 10; fill: #3E3E42; fill-rule: nonzero; opacity: 0;" transform="  matrix(1 0 0 1 0 0) "/>
  <polygon points="112.23,399.21 89.59,421.86 123.04,410.02 " style="stroke: none; stroke-width: 1; stroke-dasharray: none; stroke-linecap: butt; stroke-linejoin: miter; stroke-miterlimit: 10; fill: #2D2E30; fill-rule: nonzero; opacity: 0;" transform="  matrix(1 0 0 1 0 0) "/>
  <rect x="243.2" y="38.4" rx="0" ry="0" width="79.03" height="380.66" style="stroke: none; stroke-width: 1; stroke-dasharray: none; stroke-linecap: butt; stroke-linejoin: miter; stroke-miterlimit: 10; fill: #439991; fill-rule: nonzero; opacity: 1;" transform=" matrix(-0.7071 -0.7071 0.7071 -0.7071 320.8911 590.3678) "/>
  <rect x="276.93" y="52.37" rx="0" ry="0" width="39.51" height="380.66" style="stroke: none; stroke-width: 1; stroke-dasharray: none; stroke-linecap: butt; stroke-linejoin: miter; stroke-miterlimit: 10; fill: #063e42; fill-rule: nonzero; opacity: 1;" transform=" matrix(-0.7071 -0.7071 0.7071 -0.7071 334.8609 624.1036) "/>
</g>
  <g transform="translate(142.45 428.79)">
   <text font-family="ADAMCG PRO" font-size="40" font-weight="bold" style="stroke: none; stroke-width: 1; stroke-dasharray: none; stroke-linecap: butt; stroke-linejoin: miter; stroke-miterlimit: 10; fill: #000000; fill-rule: nonzero; opacity: 1;" ><tspan x="0" y="8.98" fill="#000000"></tspan></text>
 </g>
  <g transform="translate(128.53 178.75)">
   <text font-family="ADAMCG PRO" font-size="40" font-weight="normal" style="stroke: none; stroke-width: 1; stroke-dasharray: none; stroke-linecap: butt; stroke-linejoin: miter; stroke-miterlimit: 10; fill: #000000; fill-rule: nonzero; opacity: 1;" ><tspan x="0" y="8.98" fill="#000000"></tspan></text>
 </g>
</svg>